<?xml version="1.0" encoding="utf-8"?>
<!-- Generator: Adobe Illustrator 25.0.1, SVG Export Plug-In . SVG Version: 6.00 Build 0)  -->
<svg version="1.1" id="master_signature" xmlns="http://www.w3.org/2000/svg" xmlns:xlink="http://www.w3.org/1999/xlink" x="0px"
	 y="0px" viewBox="0 0 504 200.9" style="enable-background:new 0 0 504 200.9;" xml:space="preserve">
<style type="text/css">
	.st0{fill:#C6C8CA;}
	.st1{fill:#929497;}
	.st2{fill:#FFFFFF;}
</style>
<g>
	<path class="st0" d="M281.7,35.8L281.7,35.8c-0.9,0.3-1.9,0.5-2.8,0.9c-20.4,6.5-27.3,14.8-29.6,20.3c-2.3-5.5-9.2-13.8-29.6-20.3
		c-1-0.3-1.9-0.6-2.8-0.8l0,0c-28.1-7.8-17.8,14.4-13.1,21.7c4.5,6.9,12.4,5.1,15.4,4.1c-3.1,1.3-10.8,5.2-7.5,11.6
		c3.5,6.8,11.4,16.7,20.1,18.3l0,0c0.6,0.1,1.2,0.2,1.9,0.2c6.3,0,12.3-5.8,15.5-22.8c3.3,17,9.2,22.8,15.5,22.8
		c0.6,0,1.2-0.1,1.8-0.2v0l0,0l0,0l0,0c8.7-1.5,16.7-11.4,20.2-18.3c3.3-6.4-4.4-10.4-7.5-11.6c3,1,11,2.8,15.4-4.1
		C299.5,50.2,309.8,28,281.7,35.8"/>
	<g>
		<path class="st1" d="M230.7,28.7c-3.5-2.2-6.2-3.2-8.2-3.2c-4.5,0-5.8,4.6-5.7,10.3c0.9,0.3,1.9,0.5,2.9,0.9
			c18.9,6.1,26.3,13.6,29,19c-0.5,2.6-0.5,4.7-0.5,5.8c0-1.1,0.3-2.6,1.1-4.5C247.5,50,242.9,36.4,230.7,28.7"/>
		<path class="st1" d="M276.1,25.5c-2,0-4.7,1-8.2,3.2C255.8,36.4,251.1,50,249.3,57c0.8,1.9,1,3.5,1,4.5c0-1.1,0-3.1-0.5-5.8
			c2.8-5.5,10.1-13,29-19c1-0.3,2-0.6,2.9-0.9C281.9,30.1,280.6,25.5,276.1,25.5"/>
	</g>
	<path class="st1" d="M249.6,70.4c0.2-2.3,0.4-4.6,0.6-7.2c-0.3,2-0.6,3.8-0.9,5.6c-0.3-1.8-0.7-3.6-0.9-5.6
		c0.2,2.6,0.4,4.9,0.6,7.2c-3.3,15.8-9.1,21.2-15.2,21.2c-0.6,0-1.2-0.1-1.9-0.2c2.4,4.3,5.2,7.5,7.8,7.5c3.8,0,7.4-11,9.6-30
		c2.2,19,5.8,30,9.6,30c2.6,0,5.4-3.1,7.8-7.5c-0.6,0.1-1.2,0.2-1.9,0.2C258.7,91.7,253,86.3,249.6,70.4"/>
	<path class="st2" d="M278.9,36.7c-20.4,6.5-27.3,14.8-29.6,20.3c-2.3-5.5-9.2-13.8-29.6-20.3c-1-0.3-2-0.6-2.9-0.9
		c0.1,6.8,2.3,15.2,3.7,19.6c1.5,4.6,5.8,5.8,9.8,5.8c0.8,0,1.4-0.1,1.8-0.1c-2.9,2-8.4,6.8-7.1,12.5c1.3,5.3,3.8,12.6,6.9,18
		c0.6,0.1,1.2,0.2,1.9,0.2c6.3,0,12.3-5.8,15.5-22.8c3.3,17,9.2,22.8,15.5,22.8c0.6,0,1.2-0.1,1.9-0.2c3-5.4,5.6-12.7,6.9-18
		c1.3-5.6-4.2-10.4-7.1-12.5c0.5,0.1,1.1,0.1,1.8,0.1c4,0,8.3-1.2,9.8-5.8c1.4-4.4,3.5-12.8,3.7-19.6
		C280.9,36,279.9,36.3,278.9,36.7"/>
</g>
<g>
	<polygon class="st2" points="76.7,122.5 76.7,125.8 83.2,125.8 83.2,146.8 86.8,146.8 86.8,125.8 93.4,125.8 93.4,122.5 	"/>
	<polygon class="st2" points="100.1,146.8 100.1,122.5 115.3,122.5 115.3,125.8 103.7,125.8 103.7,132.9 113.6,132.9 113.6,136.1 
		103.7,136.1 103.7,143.4 115.3,143.4 115.3,146.8 	"/>
	<polygon class="st2" points="140.2,146.8 140.2,130.5 134.8,142.4 132.1,142.4 126.5,130.5 126.5,146.8 122.9,146.8 122.9,122.5 
		126.5,122.5 133.4,137.6 140.2,122.5 143.8,122.5 143.8,146.8 	"/>
	<polygon class="st2" points="176.3,146.8 176.3,122.5 179.9,122.5 179.9,143.4 191.3,143.4 191.3,146.8 	"/>
	<polygon class="st2" points="198.1,146.8 198.1,122.5 213.3,122.5 213.3,125.8 201.7,125.8 201.7,132.9 211.6,132.9 211.6,136.1 
		201.7,136.1 201.7,143.4 213.3,143.4 213.3,146.8 	"/>
	<polygon class="st2" points="228.9,125.8 228.9,146.8 225.3,146.8 225.3,125.8 218.8,125.8 218.8,122.5 235.5,122.5 235.5,125.8 	
		"/>
	<polygon class="st2" points="280.3,146.8 269.4,129.7 269.4,146.8 265.8,146.8 265.8,122.5 269.1,122.5 280,139.5 280,122.5 
		283.6,122.5 283.6,146.8 	"/>
	<polygon class="st2" points="322.6,146.8 319.4,146.8 314.6,129.7 309.8,146.8 306.6,146.8 300.4,122.5 304.2,122.5 308.4,139.8 
		313.2,122.5 316.1,122.5 320.8,139.8 325,122.5 328.8,122.5 	"/>
	<polygon class="st2" points="383.3,146.8 383.3,122.5 386.9,122.5 386.9,143.4 398.3,143.4 398.3,146.8 	"/>
	<g>
		<path class="st2" d="M419.6,144.5c-1.5,1.5-3.7,2.3-6.1,2.3h-8.3v-24.3h8.3c2.5,0,4.6,0.7,6.1,2.3c2.6,2.6,2.4,6.2,2.4,9.7
			C422,138,422.1,141.8,419.6,144.5 M417.1,127.4c-1-1.1-2.3-1.6-4-1.6h-4.4v17.7h4.4c1.7,0,3-0.5,4-1.6c1.2-1.4,1.3-4,1.3-7.4
			C418.4,131.1,418.3,128.8,417.1,127.4"/>
		<path class="st2" d="M348.5,144.4c-1.6,1.7-3.7,2.6-6.3,2.6c-2.5,0-4.6-0.9-6.2-2.6c-2.3-2.4-2.3-5.1-2.3-9.8c0-4.7,0-7.4,2.3-9.8
			c1.6-1.7,3.7-2.6,6.2-2.6c2.5,0,4.6,0.9,6.3,2.6c2.3,2.4,2.3,5.1,2.3,9.8C350.8,139.3,350.8,142,348.5,144.4 M345.8,127.1
			c-0.8-0.9-2.1-1.5-3.5-1.5c-1.4,0-2.7,0.6-3.5,1.5c-1.2,1.3-1.4,2.7-1.4,7.5c0,4.9,0.2,6.2,1.4,7.5c0.8,0.9,2.1,1.5,3.5,1.5
			c1.4,0,2.7-0.6,3.5-1.5c1.2-1.3,1.4-2.7,1.4-7.5C347.2,129.7,346.9,128.4,345.8,127.1"/>
		<path class="st2" d="M371.9,146.8l-5-10.2h-4.5v10.2h-3.6v-24.3h9.2c4.5,0,7.4,3,7.4,7.1c0,3.5-2.1,5.7-4.7,6.4l5.5,10.7H371.9z
			 M367.7,125.8h-5.3v7.6h5.3c2.4,0,4-1.4,4-3.8C371.7,127.2,370.1,125.8,367.7,125.8"/>
		<path class="st2" d="M255.5,144.4c-1.6,1.7-3.7,2.6-6.3,2.6s-4.6-0.9-6.2-2.6c-2.3-2.4-2.3-5.1-2.3-9.8c0-4.7,0-7.4,2.3-9.8
			c1.6-1.7,3.7-2.6,6.2-2.6s4.6,0.9,6.3,2.6c2.3,2.4,2.3,5.1,2.3,9.8C257.8,139.3,257.8,142,255.5,144.4 M252.8,127.1
			c-0.8-0.9-2.1-1.5-3.5-1.5s-2.7,0.6-3.5,1.5c-1.2,1.3-1.4,2.7-1.4,7.5c0,4.9,0.2,6.2,1.4,7.5c0.8,0.9,2.1,1.5,3.5,1.5
			s2.7-0.6,3.5-1.5c1.2-1.3,1.4-2.7,1.4-7.5C254.2,129.7,253.9,128.4,252.8,127.1"/>
		<path class="st2" d="M161.7,137.2h-5.4v9.6h-3.6v-24.3h9c4.6,0,7.6,3.1,7.6,7.4C169.3,134.1,166.3,137.2,161.7,137.2 M161.5,125.8
			h-5.2v8.1h5.2c2.5,0,4.2-1.5,4.2-4C165.7,127.3,164,125.8,161.5,125.8"/>
	</g>
	<polygon class="st2" points="76.7,122.2 76.7,125.5 83.2,125.5 83.2,146.4 86.8,146.4 86.8,125.5 93.3,125.5 93.3,122.2 	"/>
	<polygon class="st2" points="100.1,146.4 100.1,122.2 115.2,122.2 115.2,125.5 103.7,125.5 103.7,132.6 113.5,132.6 113.5,135.8 
		103.7,135.8 103.7,143.1 115.2,143.1 115.2,146.4 	"/>
	<polygon class="st2" points="140.1,146.4 140.1,130.2 134.7,142 132,142 126.4,130.2 126.4,146.4 122.8,146.4 122.8,122.2 
		126.4,122.2 133.3,137.3 140.1,122.2 143.7,122.2 143.7,146.4 	"/>
	<polygon class="st2" points="176.1,146.4 176.1,122.2 179.7,122.2 179.7,143.1 191.1,143.1 191.1,146.4 	"/>
	<polygon class="st2" points="197.9,146.4 197.9,122.2 213,122.2 213,125.5 201.5,125.5 201.5,132.6 211.3,132.6 211.3,135.8 
		201.5,135.8 201.5,143.1 213,143.1 213,146.4 	"/>
	<polygon class="st2" points="228.7,125.5 228.7,146.4 225.1,146.4 225.1,125.5 218.5,125.5 218.5,122.2 235.2,122.2 235.2,125.5 	
		"/>
	<polygon class="st2" points="280,146.4 269,129.4 269,146.4 265.4,146.4 265.4,122.2 268.7,122.2 279.7,139.2 279.7,122.2 
		283.3,122.2 283.3,146.4 	"/>
	<polygon class="st2" points="322.1,146.4 319,146.4 314.2,129.4 309.4,146.4 306.2,146.4 300,122.2 303.8,122.2 308,139.5 
		312.7,122.2 315.6,122.2 320.4,139.5 324.5,122.2 328.3,122.2 	"/>
	<polygon class="st2" points="382.7,146.4 382.7,122.2 386.3,122.2 386.3,143.1 397.7,143.1 397.7,146.4 	"/>
</g>
<g>
	<polygon class="st0" points="151.3,165 151.3,169.6 146.5,169.6 146.5,165 145.4,165 145.4,175.3 146.5,175.3 146.5,170.6 
		151.3,170.6 151.3,175.3 152.3,175.3 152.3,165 	"/>
	<path class="st0" d="M163.3,165l-3.7,10.3l1.1,0l0.8-2.3l4.4,0l0.8,2.3l1.1,0l-3.7-10.3L163.3,165z M163.7,166.6l1.9,5.4l-3.8,0
		L163.7,166.6z"/>
	<g>
		<path class="st0" d="M180.9,175.2l-2.3-4.6l-2.4,0l0,4.6l-1.1,0l0-10.3l3.8,0c1.8,0,3,1.1,3,2.9c0,1.5-0.9,2.5-2.2,2.8l2.4,4.7
			L180.9,175.2z M178.9,165.9l-2.7,0l0,3.8l2.7,0c1.2,0,2-0.6,2-1.9C180.9,166.6,180,165.9,178.9,165.9"/>
	</g>
	
		<rect x="190" y="164.9" transform="matrix(1 -1.697372e-03 1.697372e-03 1 -0.2884 0.3237)" class="st0" width="1.1" height="10.3"/>
	<polygon class="st0" points="198.6,164.9 198.6,165.9 201.5,165.9 201.5,175.2 202.6,175.2 202.6,165.9 205.5,165.9 205.5,164.9 	
		"/>
	<polygon class="st0" points="217.5,164.9 215.2,169.8 212.8,164.9 211.7,164.9 214.7,170.9 214.7,175.2 215.7,175.2 215.7,170.9 
		218.7,164.9 	"/>
	<polygon class="st0" points="235,164.8 235,175.1 236.1,175.1 236.1,170.6 240.5,170.6 240.5,169.6 236.1,169.6 236.1,165.8 
		241.3,165.8 241.3,164.8 	"/>
	<g>
		<path class="st0" d="M254.3,174.1c-0.7,0.7-1.6,1.1-2.6,1.1c-1,0-1.9-0.4-2.6-1.1c-0.9-1-0.9-2-0.9-4.2c0-2.2,0-3.2,0.9-4.2
			c0.7-0.7,1.6-1.1,2.6-1.1c1,0,1.9,0.4,2.6,1.1c0.9,1,1,2,1,4.2C255.2,172.1,255.2,173.1,254.3,174.1 M253.4,166.4
			c-0.4-0.5-1.1-0.7-1.7-0.7c-0.7,0-1.3,0.3-1.7,0.7c-0.6,0.7-0.7,1.4-0.7,3.5c0,2.1,0.1,2.8,0.7,3.5c0.4,0.5,1.1,0.7,1.7,0.7
			c0.7,0,1.3-0.3,1.7-0.7c0.6-0.7,0.7-1.4,0.7-3.5C254.1,167.8,254.1,167.1,253.4,166.4"/>
		<path class="st0" d="M266.7,175.2c-2,0-3.5-1.4-3.5-3.5l0-6.9l1.1,0l0,6.8c0,1.6,1,2.6,2.4,2.6c1.5,0,2.4-1,2.4-2.6l0-6.8l1.1,0
			l0,6.9C270.2,173.7,268.8,175.2,266.7,175.2"/>
	</g>
	<polygon class="st0" points="285,164.8 285,173 279.6,164.8 278.6,164.8 278.6,175.1 279.7,175.1 279.7,166.8 285.1,175 286.1,175 
		286.1,164.8 	"/>
	<g>
		<path class="st0" d="M300.6,174.1c-0.6,0.6-1.5,1-2.5,1l-3.4,0l0-10.3l3.4,0c1,0,1.9,0.3,2.5,0.9c1,1.1,1,2.6,1,4.1
			C301.6,171.2,301.6,173,300.6,174.1 M299.8,166.5c-0.5-0.5-1.2-0.7-2-0.7l-2.2,0l0,8.3l2.2,0c0.8,0,1.5-0.2,2-0.8
			c0.7-0.7,0.7-2.3,0.7-3.5C300.5,168.5,300.5,167.2,299.8,166.5"/>
	</g>
	<path class="st0" d="M312,164.7l-3.7,10.3l1.1,0l0.8-2.3l4.4,0l0.8,2.3l1.1,0l-3.7-10.3L312,164.7z M312.5,166.3l1.9,5.4l-3.8,0
		L312.5,166.3z"/>
	<polygon class="st0" points="321.9,164.7 321.9,165.7 324.9,165.7 324.9,175 325.9,175 325.9,165.7 328.8,165.7 328.8,164.7 	"/>
	
		<rect x="336.3" y="164.7" transform="matrix(1 -1.581682e-03 1.581682e-03 1 -0.2682 0.5331)" class="st0" width="1.1" height="10.3"/>
	<g>
		<path class="st0" d="M351.7,173.9c-0.7,0.7-1.6,1.1-2.6,1.1c-1,0-1.9-0.4-2.6-1.1c-0.9-1-0.9-2-0.9-4.2c0-2.2,0-3.2,0.9-4.2
			c0.7-0.7,1.6-1.1,2.6-1.1c1,0,1.9,0.4,2.6,1.1c0.9,1,1,2,1,4.2C352.6,172,352.6,173,351.7,173.9 M350.8,166.3
			c-0.4-0.5-1.1-0.7-1.7-0.7c-0.7,0-1.3,0.3-1.7,0.7c-0.6,0.7-0.7,1.4-0.7,3.5c0,2.1,0.1,2.8,0.7,3.5c0.4,0.5,1.1,0.7,1.7,0.7
			c0.7,0,1.3-0.3,1.7-0.7c0.6-0.7,0.7-1.4,0.7-3.5C351.5,167.6,351.5,166.9,350.8,166.3"/>
	</g>
	<polygon class="st0" points="367.1,164.6 367.1,172.8 361.8,164.6 360.8,164.6 360.8,174.9 361.9,174.9 361.8,166.7 367.2,174.9 
		368.2,174.9 368.2,164.6 	"/>
	<g>
		<path class="st0" d="M133.9,175.4c-1,0-1.9-0.4-2.6-1.1c-0.9-1-0.9-2-0.9-4.2c0-2.2,0-3.2,0.9-4.2c0.7-0.7,1.6-1.1,2.6-1.1
			c1.8,0,3.1,1.1,3.5,3.1l-1.1,0c-0.3-1.3-1.1-2.1-2.4-2.1c-0.7,0-1.3,0.3-1.7,0.7c-0.6,0.7-0.7,1.4-0.7,3.5c0,2.2,0.1,2.9,0.7,3.5
			c0.4,0.5,1.1,0.7,1.7,0.7c1.3,0,2.1-0.8,2.4-2.1l1.1,0C137.1,174.3,135.7,175.4,133.9,175.4"/>
	</g>
</g>
</svg>
